<svg width="384" height="405" viewBox="0 0 384 405" fill="none" xmlns="http://www.w3.org/2000/svg">
<g clip-path="url(#clip0_370_1386)">
<path d="M121.34 291.135C127.139 291.135 132.561 290.21 136.857 288.464C142.008 286.371 144.948 283.337 145.138 279.919C145.522 272.98 134.09 266.684 119.653 265.882C112.709 265.496 106.104 266.415 101.054 268.466C95.9037 270.558 92.9627 273.593 92.7737 277.011C92.5838 280.429 95.1712 283.772 100.058 286.421C104.851 289.019 111.315 290.662 118.258 291.047C119.294 291.106 120.322 291.135 121.34 291.135ZM116.566 266.612C117.569 266.612 118.584 266.64 119.608 266.697C133.595 267.473 144.683 273.384 144.323 279.874C144.152 282.96 141.392 285.743 136.551 287.71C131.609 289.717 125.129 290.614 118.303 290.236C111.478 289.857 105.136 288.249 100.447 285.705C95.8528 283.214 93.4163 280.143 93.5879 277.057C93.7587 273.971 96.5193 271.188 101.36 269.222C105.561 267.515 110.874 266.611 116.566 266.611V266.612Z" fill="#FCFFC1"/>
<path d="M50.4627 251.496C50.4627 251.496 17.7837 261.679 15.2959 254.931C12.8082 248.183 29.1585 246.724 28.1023 242.849C27.3544 240.106 11.6381 232.392 2.72434 226.52C-1.78596 223.548 1.06758 217.626 6.76672 220.236C13.3941 223.271 20.4978 227.852 21.9659 226.377C23.6425 224.691 13.0839 218.328 8.09537 213.321C5.00231 210.216 7.76014 204.437 14.9643 209.276C14.1675 207.434 16.5106 203.37 21.208 205.783C22.8365 206.62 24.7431 207.718 25.8331 208.43C25.9002 206.065 29.4743 205.642 34.7794 209.362C39.7802 212.869 60.4692 228.718 62.4862 235.351C64.5032 241.984 56.6095 249.739 50.4627 251.496Z" fill="#FCFFC1"/>
<path d="M48.5849 259.154C40.4448 256.578 36.3338 246.619 39.4027 236.91C42.4716 227.201 51.5582 221.419 59.6983 223.995C67.8384 226.571 71.9494 236.53 68.8806 246.239C65.8117 255.948 56.725 261.73 48.5849 259.154Z" fill="#FF0068"/>
<path d="M47.9786 251.44C45.5338 248.459 44.7052 243.738 46.1844 239.057C47.9997 233.315 52.6863 229.522 57.3229 229.633L57.3265 229.625L57.4342 229.631C57.5294 229.643 57.6254 229.649 57.7213 229.649C86.6762 227.292 107.028 225.527 146.605 201.099C157.731 194.232 165.765 185.219 180.73 179.768C183.992 178.579 180.124 270.728 180.124 270.728C119.673 291.674 62.3992 267.576 48.5434 252.079C48.4481 251.982 48.3611 251.875 48.2694 251.774C48.1725 251.664 48.0708 251.558 47.9754 251.446L47.9786 251.44Z" fill="#511ABE"/>
<path d="M153.088 242.885C143.211 215.856 151.317 188.049 171.194 180.776C191.071 173.503 215.192 189.519 225.069 216.547C234.947 243.576 226.841 271.383 206.964 278.656C187.087 285.929 162.966 269.914 153.088 242.885Z" fill="#F2E6FF"/>
<path d="M194.209 266.428C197.684 266.449 201.115 265.645 204.219 264.083C211.174 260.561 215.799 253.487 217.243 244.164C218.679 234.891 216.793 224.49 211.932 214.88C207.072 205.27 199.814 197.591 191.497 193.255C183.135 188.897 174.698 188.437 167.744 191.958C153.434 199.204 149.974 221.276 160.03 241.163C164.89 250.774 172.148 258.453 180.466 262.788C185.114 265.209 189.784 266.428 194.209 266.428ZM177.756 190.436C182.053 190.436 186.594 191.623 191.122 193.982C199.289 198.238 206.422 205.792 211.206 215.252C215.991 224.711 217.848 234.936 216.439 244.042C215.037 253.098 210.566 259.958 203.852 263.358C197.138 266.759 188.967 266.299 180.844 262.066C172.676 257.81 165.543 250.256 160.759 240.796C150.905 221.313 154.205 199.733 168.113 192.69C171.104 191.186 174.408 190.413 177.756 190.434V190.436Z" fill="#F2E6FF"/>
<path d="M189.93 176.197C205.681 168.346 229.931 159.213 265.972 158.127C278.372 157.753 295.627 160.853 309.699 166.615C330.064 174.953 346.534 187.589 352.878 212.494C366.762 266.994 374.646 316.775 374.965 318.545C377.096 327.289 375.67 335.586 371.659 343.192C363.995 361.077 345.551 377.791 320.928 386.8C285.289 399.841 249.143 392.181 235.92 369.975C219.094 349.496 193.33 309.669 176.551 273.812C169.475 258.691 163.501 247.946 163.501 221.804C163.501 195.333 176.512 182.885 189.93 176.197Z" fill="#511ABE"/>
<path d="M305.709 278.123C280.985 271.513 267.207 242.693 274.934 213.751C282.662 184.809 308.969 166.704 333.694 173.314C358.418 179.923 372.196 208.744 364.469 237.686C356.741 266.628 330.434 284.732 305.709 278.123Z" fill="#F2E6FF"/>
<path d="M292.876 341.865C293.358 341.865 293.845 341.854 294.337 341.832C302.595 341.467 311.328 338.057 318.928 332.234C334.657 320.179 340.581 301.388 332.131 290.347C323.68 279.307 304.006 280.133 288.275 292.188C272.544 304.243 266.621 323.034 275.072 334.075C278.939 339.127 285.224 341.865 292.876 341.865ZM314.303 283.38C321.426 283.38 327.656 285.844 331.483 290.843C339.661 301.526 333.806 319.804 318.432 331.586C310.964 337.309 302.394 340.659 294.301 341.017C286.261 341.371 279.664 338.731 275.72 333.578C267.542 322.895 273.397 304.617 288.771 292.835C296.948 286.567 306.203 283.38 314.303 283.38Z" fill="#FCFFC1"/>
<path d="M282.208 396.534C282.289 396.533 282.369 396.509 282.437 396.463C282.504 396.416 282.556 396.351 282.586 396.275C282.616 396.199 282.622 396.116 282.605 396.036C282.587 395.956 282.545 395.884 282.486 395.828C276.666 390.372 269.293 379.771 261.725 365.973C253.517 351.01 245.765 333.598 239.308 315.62C229.961 289.592 215.319 239.387 222.294 195.585C222.302 195.532 222.3 195.478 222.288 195.426C222.276 195.374 222.253 195.325 222.222 195.282C222.19 195.238 222.151 195.201 222.105 195.173C222.059 195.145 222.009 195.126 221.956 195.118C221.903 195.11 221.849 195.112 221.797 195.124C221.745 195.136 221.696 195.159 221.652 195.19C221.609 195.222 221.572 195.262 221.544 195.307C221.516 195.353 221.497 195.404 221.489 195.456C214.485 239.438 229.166 289.794 238.541 315.897C253.367 357.177 271.424 386.577 281.928 396.423C282.004 396.494 282.104 396.534 282.208 396.534Z" fill="#F2E6FF"/>
<path d="M227.917 279.466C234.074 279.298 240.163 278.123 245.941 275.988C265.034 269.002 281.667 248.802 282.055 233.446C282.18 229.681 282.735 225.943 283.71 222.305C289.764 199.635 310.368 185.453 329.732 190.628C349.097 195.803 359.887 218.381 353.834 241.052C353.614 241.873 353.375 242.684 353.115 243.484C347.585 265.602 331.229 293.697 309.124 318.658C282.773 348.414 255.453 365.159 221.111 371.845L227.917 279.466Z" fill="#511ABE"/>
<path d="M220.665 372.347L221.189 372.245C255.468 365.572 282.684 349.128 309.429 318.928C331.453 294.058 347.932 265.893 353.511 243.583C353.777 242.759 354.014 241.957 354.226 241.158C357.18 230.098 356.276 218.715 351.684 209.104C347.079 199.471 339.321 192.769 329.839 190.236C320.357 187.702 310.293 189.637 301.5 195.689C292.728 201.726 286.271 211.141 283.318 222.198C282.336 225.867 281.776 229.636 281.65 233.431C281.465 240.731 277.475 249.536 270.703 257.592C263.834 265.762 254.759 272.327 245.803 275.603C240.067 277.726 234.023 278.893 227.91 279.057L227.54 279.066L220.665 372.347ZM321.584 189.966C324.3 189.966 327.004 190.322 329.627 191.024C338.875 193.496 346.446 200.043 350.946 209.457C355.457 218.892 356.342 230.075 353.44 240.946C353.23 241.732 352.996 242.522 352.728 243.358C347.172 265.575 330.76 293.611 308.819 318.387C282.337 348.29 255.404 364.639 221.557 371.341L228.297 279.864C234.374 279.66 240.378 278.481 246.081 276.371C255.166 273.047 264.368 266.395 271.325 258.118C278.214 249.923 282.274 240.934 282.463 233.456C282.588 229.724 283.138 226.017 284.104 222.41C287.007 211.54 293.349 202.289 301.961 196.361C308.093 192.14 314.854 189.966 321.584 189.966Z" fill="#F2E6FF"/>
<path d="M168.326 331.774C162.437 302.915 178.144 275.336 203.408 270.175C228.672 265.014 253.925 284.225 259.814 313.085C265.702 341.944 249.995 369.523 224.732 374.684C199.468 379.845 174.214 360.634 168.326 331.774Z" fill="#FF0068"/>
<path d="M320.928 386.8C345.551 377.791 363.995 361.075 371.659 343.192C375.671 335.586 377.095 327.289 374.965 318.545C374.902 318.195 374.541 315.953 373.896 312.171C377.11 315.704 379.612 319.825 381.266 324.307C391.084 351.174 367.624 384.45 328.866 398.63C290.879 412.529 252.316 402.915 241.552 377.232C257.704 393.697 289.508 398.297 320.928 386.8Z" fill="#FF0068"/>
<path d="M183.429 278.198C189.528 269.139 186.503 248.156 184.078 243.337C181.653 238.517 170.668 217.061 180.191 212.084C189.714 207.108 197.495 220.892 199.738 226.872C201.494 231.551 208.067 242.343 209.726 257.942C213.525 253.473 218.176 251.424 223.882 253.497C228.674 255.238 231.102 258.78 231.631 263.286C234.803 261.394 238.267 261.075 241.972 263.087C247.448 266.06 249.475 270.948 248.773 276.676C251.77 275.71 254.747 276.01 257.418 278.024C267.835 285.881 263.68 308.161 254.26 327.745C252.443 331.524 249.16 338.189 249.16 338.189C238.164 359.164 211.117 365.99 191.133 356.757C182.11 352.589 175.801 345.814 170.177 338.043C160.951 325.295 143.752 298.048 136.173 285.014C132.34 278.423 129.807 272.184 134.948 268.136C139.896 264.241 146.311 268.503 151.363 273.965C154.84 277.725 170.45 290.718 175.766 286.665C179.534 283.789 180.947 281.885 183.429 278.198Z" fill="#FCFFC1"/>
<path d="M210.893 299.05C212.628 299.039 214.32 298.514 215.757 297.542C215.845 297.482 215.906 297.39 215.927 297.285C215.948 297.181 215.927 297.072 215.869 296.983C215.811 296.894 215.721 296.83 215.617 296.807C215.513 296.783 215.404 296.802 215.313 296.857C212.888 298.432 210.288 298.646 207.367 297.516C202.731 295.721 196.013 289.892 203.097 271.017C206.751 261.28 211.141 255.445 216.142 253.677C216.193 253.66 216.241 253.632 216.281 253.596C216.321 253.561 216.354 253.517 216.378 253.469C216.401 253.42 216.415 253.367 216.418 253.314C216.421 253.26 216.413 253.206 216.395 253.155C216.378 253.104 216.35 253.057 216.314 253.017C216.277 252.977 216.234 252.945 216.185 252.922C216.136 252.898 216.083 252.885 216.029 252.883C215.976 252.88 215.922 252.889 215.871 252.907C210.631 254.759 206.076 260.756 202.333 270.73C199.878 277.273 198.856 283.138 199.379 287.691C199.986 292.973 202.575 296.535 207.072 298.277C208.287 298.769 209.582 299.031 210.893 299.05Z" fill="#0B1A42"/>
<path d="M225.745 306.856C227.787 306.816 229.77 306.161 231.434 304.976C231.522 304.915 231.583 304.822 231.603 304.717C231.623 304.612 231.601 304.503 231.542 304.413C231.483 304.324 231.391 304.262 231.286 304.24C231.181 304.218 231.071 304.239 230.981 304.297C227.89 306.357 224.922 306.594 221.643 305.042C214.297 301.562 213.868 293.05 220.332 279.019C224.472 270.034 231.192 259.884 239.712 262.56C239.814 262.589 239.924 262.577 240.017 262.526C240.111 262.476 240.181 262.391 240.213 262.289C240.245 262.188 240.236 262.078 240.188 261.983C240.14 261.888 240.057 261.815 239.956 261.781C232.767 259.523 225.724 265.366 219.591 278.677C216.533 285.321 215.027 290.661 214.995 295.002C214.955 300.155 217.075 303.781 221.293 305.779C222.678 306.466 224.199 306.835 225.745 306.856Z" fill="#0B1A42"/>
<path d="M240.733 314.217C241.425 314.215 242.115 314.142 242.793 314.001C247.819 312.965 253.131 308.238 257.364 301.034C257.392 300.988 257.411 300.937 257.42 300.883C257.428 300.829 257.426 300.774 257.413 300.721C257.4 300.669 257.376 300.619 257.344 300.575C257.311 300.532 257.271 300.495 257.224 300.467C257.177 300.44 257.125 300.422 257.071 300.415C257.017 300.407 256.962 300.411 256.91 300.425C256.857 300.44 256.808 300.464 256.766 300.498C256.723 300.531 256.687 300.573 256.661 300.621C252.605 307.523 247.359 312.226 242.628 313.201C241.406 313.47 240.141 313.47 238.92 313.199C237.698 312.928 236.551 312.393 235.558 311.633C228.177 306.213 232.535 294.63 236.273 288.64C240.46 281.931 245.559 277.583 250.263 276.71C251.465 276.469 252.704 276.49 253.897 276.773C255.089 277.056 256.207 277.594 257.172 278.349C257.214 278.383 257.263 278.407 257.316 278.422C257.368 278.436 257.423 278.44 257.476 278.433C257.53 278.426 257.582 278.408 257.629 278.381C257.676 278.354 257.717 278.317 257.749 278.274C257.782 278.231 257.806 278.181 257.819 278.129C257.832 278.076 257.835 278.021 257.827 277.967C257.819 277.914 257.8 277.862 257.772 277.816C257.744 277.77 257.707 277.729 257.663 277.698C256.608 276.872 255.388 276.285 254.085 275.976C252.782 275.668 251.428 275.645 250.116 275.909C245.188 276.823 239.891 281.306 235.583 288.209C233.005 292.339 231.271 296.949 230.823 300.857C230.249 305.873 231.72 309.828 235.076 312.292C236.702 313.532 238.688 314.208 240.733 314.217Z" fill="#0B1A42"/>
<path d="M198.949 332.335C199.043 332.335 199.135 332.302 199.208 332.242C199.281 332.181 199.33 332.098 199.349 332.005C200.822 324.519 199.293 315.528 195.154 307.337C189.332 295.818 179.613 287.822 170.394 286.967C170.34 286.962 170.286 286.967 170.235 286.983C170.184 286.998 170.136 287.024 170.094 287.058C170.053 287.093 170.019 287.135 169.994 287.183C169.97 287.23 169.954 287.282 169.95 287.336C169.94 287.444 169.974 287.551 170.043 287.634C170.112 287.717 170.211 287.77 170.319 287.78C179.265 288.609 188.728 296.43 194.426 307.706C198.485 315.737 199.987 324.536 198.548 331.847C198.527 331.954 198.549 332.064 198.61 332.154C198.67 332.243 198.763 332.306 198.87 332.327C198.896 332.332 198.922 332.335 198.949 332.335Z" fill="#0B1A42"/>
<path d="M250.272 234.315L261.041 248.385C261.18 248.566 261.268 248.783 261.295 249.011C261.322 249.238 261.286 249.469 261.193 249.679C261.099 249.888 260.95 250.068 260.763 250.2C260.575 250.332 260.356 250.41 260.127 250.427L240.856 251.904C240.628 251.922 240.398 251.878 240.193 251.776C239.988 251.674 239.813 251.519 239.689 251.326C239.565 251.133 239.495 250.911 239.487 250.681C239.479 250.452 239.533 250.225 239.643 250.024L248.143 234.479C248.244 234.292 248.391 234.134 248.569 234.018C248.747 233.902 248.951 233.833 249.163 233.817C249.375 233.801 249.587 233.838 249.781 233.925C249.974 234.012 250.143 234.146 250.272 234.315Z" fill="#20005F"/>
<path d="M177.882 179.6C175.034 162.107 200.394 143.415 234.525 137.85C268.656 132.286 298.634 141.956 301.483 159.45C304.331 176.943 278.972 195.635 244.84 201.199C210.709 206.764 180.731 197.094 177.882 179.6Z" fill="#F2E6FF"/>
<path d="M222.612 197.119C168.212 197.119 124.113 152.993 124.113 98.5611C124.113 44.1288 168.212 0.00278213 222.612 0.00278213C277.011 0.00278213 321.111 44.1288 321.111 98.5611C321.111 152.993 277.011 197.119 222.612 197.119Z" fill="url(#paint0_linear_370_1386)"/>
<path d="M208.072 151.225L256.751 102.519C257.642 129.269 259.174 147.172 263.56 157.712C264.844 160.796 266.372 163.25 268.201 165.108C266.098 172.703 256.666 180.226 244.096 183.485C232.888 186.392 221.654 185.05 216.115 180.834C216.274 177.858 216.509 175.209 216.089 172.35C214.502 161.562 208.072 151.225 208.072 151.225Z" fill="#72481E"/>
<path d="M216.088 172.35C215.993 171.708 215.881 171.067 215.754 170.43C218.217 170.407 220.671 170.143 223.083 169.641C235.952 167.011 246.806 156.565 252.547 139.373C249.287 156.265 245.657 174.701 216.113 180.834C216.273 177.858 216.508 175.209 216.088 172.35Z" fill="#693E1B"/>
<path d="M170.586 109.222C180.77 159.133 200.747 173.734 223.108 169.165C245.468 164.597 261.779 136.468 255.679 90.2604C249.856 46.1735 234.73 30.3443 205.838 32.4127C180.698 34.2123 159.255 53.6916 170.586 109.222Z" fill="#72481E"/>
<path d="M168.835 66.2243C173.122 42.666 188.902 33.2048 206.131 31.9711C235.245 29.8881 250.486 45.8372 256.354 90.2604C256.508 91.4253 256.637 92.5695 256.762 93.7114L250.826 94.6792C250.694 92.3772 250.445 90.0834 250.081 87.8065C248.297 76.6315 243.897 66.6659 237.792 58.7094C233.642 53.3005 222.705 44.8075 214.937 52.9015C205.022 63.2331 192.259 65.803 182.256 62.3091C178.715 61.0722 177.777 59.9562 175.166 57.267C173.557 55.6113 170.716 60.6799 168.835 66.2243Z" fill="#FCFFDB"/>
<path d="M250.588 114.279C246.025 112.755 244.329 105.515 246.801 98.1073C249.272 90.6999 254.974 85.9306 259.537 87.4548C264.1 88.9789 265.796 96.2194 263.324 103.627C260.853 111.034 255.15 115.804 250.588 114.279Z" fill="#72481E"/>
<path d="M231.758 102.559C228.604 106.208 227.402 110.657 229.074 112.495C230.746 114.333 234.658 112.866 237.812 109.216C240.967 105.567 242.168 101.118 240.496 99.28C238.824 97.4418 234.911 98.9096 231.758 102.559Z" fill="#693E1B"/>
<path d="M173.092 112.792C172.187 115.107 174.898 118.833 179.148 121.112C183.398 123.391 187.576 123.363 188.483 121.047C189.389 118.732 186.675 115.006 182.426 112.728C178.177 110.449 173.995 110.477 173.092 112.792Z" fill="#693E1B"/>
<path d="M224.911 76.1907C225.174 76.1376 225.414 76.0045 225.597 75.8098C225.781 75.615 225.901 75.3681 225.939 75.1029C225.977 74.8377 225.932 74.5671 225.811 74.3283C225.689 74.0895 225.497 73.8942 225.26 73.7691C223.281 72.7118 221.106 72.0729 218.87 71.8919C215.769 71.6514 212.664 72.2859 209.906 73.7234C209.752 73.7999 209.614 73.9064 209.501 74.0368C209.388 74.1671 209.302 74.3187 209.248 74.4825C209.195 74.6464 209.174 74.8194 209.188 74.9913C209.202 75.1633 209.249 75.3308 209.328 75.484C209.408 75.6373 209.516 75.7733 209.649 75.884C209.781 75.9947 209.934 76.078 210.098 76.129C210.263 76.18 210.436 76.1976 210.608 76.1809C210.779 76.1642 210.946 76.1135 211.098 76.0317C213.426 74.8213 216.045 74.2861 218.661 74.4865C220.545 74.6395 222.377 75.1779 224.045 76.0683C224.311 76.2092 224.617 76.2533 224.912 76.1931L224.911 76.1907Z" fill="#030A24"/>
<path d="M178.831 84.805C180.016 83.3322 181.491 82.1182 183.164 81.2383C185.492 80.0276 188.113 79.4924 190.729 79.693C191.07 79.7142 191.406 79.5999 191.663 79.3749C191.921 79.15 192.079 78.8325 192.104 78.4915C192.129 78.1504 192.019 77.8132 191.797 77.553C191.575 77.2928 191.26 77.1306 190.919 77.1017C187.819 76.8618 184.714 77.4963 181.957 78.9331C179.97 79.9769 178.219 81.4179 176.813 83.1667C176.705 83.2994 176.625 83.4519 176.576 83.6156C176.527 83.7793 176.511 83.951 176.529 84.1208C176.547 84.2907 176.598 84.4554 176.679 84.6056C176.76 84.7557 176.87 84.8884 177.003 84.996C177.136 85.1036 177.288 85.184 177.452 85.2327C177.615 85.2813 177.787 85.2972 177.957 85.2795C178.126 85.2618 178.291 85.2109 178.441 85.1295C178.591 85.0482 178.724 84.938 178.831 84.8054L178.831 84.805Z" fill="#030A24"/>
<path d="M217.911 94.1605C217.298 91.1539 218.166 88.4376 219.85 88.0935C221.535 87.7493 223.398 89.9078 224.011 92.9144C224.625 95.9211 223.756 98.6374 222.072 98.9815C220.387 99.3256 218.525 97.1672 217.911 94.1605Z" fill="#030A24"/>
<path d="M183.618 100.832C183.004 97.8258 183.872 95.1094 185.557 94.7653C187.241 94.4212 189.104 96.5796 189.718 99.5863C190.331 102.593 189.463 105.309 187.778 105.653C186.094 105.997 184.231 103.839 183.618 100.832Z" fill="#030A24"/>
<path d="M227.642 128.225C231.096 133.988 228.752 141.162 223.65 143.564C219.42 145.555 213.765 144.041 210.641 139.598L227.642 128.225Z" fill="#030A24"/>
<path d="M207.415 127.991C208.308 127.974 209.185 127.749 209.975 127.333C211.427 126.6 214.253 124.985 214.282 124.968C214.328 124.942 214.369 124.906 214.402 124.864C214.434 124.821 214.458 124.773 214.472 124.721C214.487 124.67 214.49 124.616 214.484 124.563C214.477 124.509 214.46 124.458 214.433 124.412C214.406 124.365 214.371 124.324 214.329 124.292C214.286 124.259 214.238 124.235 214.186 124.221C214.135 124.206 214.081 124.203 214.028 124.21C213.974 124.216 213.923 124.233 213.877 124.26C213.849 124.276 211.041 125.881 209.608 126.605C208.311 127.26 206.963 127.351 206.001 126.851C205.603 126.628 205.266 126.311 205.019 125.927C204.772 125.543 204.624 125.105 204.586 124.65C203.454 116.837 202.38 106.478 201.302 92.9813C201.293 92.8735 201.242 92.7735 201.16 92.7033C201.077 92.6332 200.97 92.5987 200.863 92.6073C200.755 92.616 200.655 92.6671 200.585 92.7494C200.515 92.8318 200.48 92.9387 200.489 93.0465C201.568 106.56 202.645 116.936 203.779 124.768C203.833 125.351 204.029 125.912 204.351 126.402C204.672 126.892 205.11 127.294 205.624 127.574C206.179 127.856 206.793 127.999 207.415 127.991Z" fill="#030A24"/>
<path d="M251.57 105.397C251.632 105.397 251.693 105.383 251.749 105.356C251.805 105.328 251.853 105.289 251.891 105.24L258.352 96.9685C258.386 96.9263 258.411 96.8779 258.426 96.826C258.441 96.774 258.445 96.7196 258.439 96.6659C258.433 96.6122 258.416 96.5602 258.39 96.5131C258.363 96.4659 258.328 96.4245 258.285 96.3912C258.242 96.3579 258.194 96.3334 258.142 96.3191C258.089 96.3048 258.035 96.301 257.981 96.308C257.928 96.3149 257.876 96.3324 257.829 96.3595C257.783 96.3866 257.742 96.4227 257.709 96.4657L251.249 104.737C251.202 104.798 251.173 104.87 251.165 104.946C251.157 105.022 251.17 105.099 251.204 105.167C251.237 105.236 251.289 105.294 251.354 105.335C251.419 105.375 251.494 105.397 251.57 105.397Z" fill="#030A24"/>
<path d="M288.839 171.109C292.14 168.476 295.098 165.439 297.644 162.07C320.86 131.317 304.581 79.8568 261.283 47.1289C218.085 14.4766 164.316 12.8101 141.012 43.3425C150.549 29.2239 163.584 17.8225 178.842 10.2525C194.1 2.68256 211.06 -0.797024 228.065 0.153812C282.38 3.16726 323.971 49.6686 320.959 104.017C319.574 129.607 308.25 153.641 289.402 170.992C289.305 170.971 289.205 170.97 289.108 170.99C289.011 171.01 288.92 171.051 288.839 171.109Z" fill="#511ABE"/>
<path d="M305.107 107.661C298.926 86.113 283.737 64.1008 261.283 47.1297C217.985 14.4019 164.064 12.8006 140.848 43.5527C140.541 43.9581 140.246 44.3699 139.953 44.7824C142.356 36.915 146.602 29.7355 152.337 23.8409C179.548 -3.90095 233.787 5.20974 273.483 44.1902C292.366 62.7331 304.556 84.6953 309.22 105.614C314.36 128.673 310.844 127.663 305.107 107.661Z" fill="#FCFFC1"/>
<path d="M286.15 128.066C302.609 97.879 307.232 65.4223 301.122 39.0512C315.251 57.654 322.285 80.6897 320.96 104.017C317.948 158.366 271.475 199.982 217.159 196.968C210.207 196.585 203.315 195.467 196.598 193.634C229.344 191.775 264.765 167.286 286.15 128.066Z" fill="#511ABE"/>
<path d="M159.895 173.605C196.583 196.21 251.429 173.743 282.398 123.422C289.736 111.575 295.287 98.7094 298.871 85.2406C299.46 82.993 301.498 85.6456 301.091 87.6368C298.138 101.779 293.103 115.404 286.15 128.066C264.765 167.286 229.344 191.775 196.598 193.634C181.037 189.378 166.764 181.349 155.041 170.259C156.601 171.456 158.221 172.573 159.895 173.605Z" fill="#FCFFC1"/>
<path d="M302.85 144.155C291.532 142.444 284.893 124.265 288.021 103.55C291.149 82.8362 302.859 67.4311 314.177 69.1421C325.494 70.8532 332.133 89.0324 329.005 109.747C325.877 130.461 314.167 145.866 302.85 144.155Z" fill="#FCFFC1"/>
<path d="M307.856 139.2C298.838 137.836 293.686 122.439 296.348 104.81C299.01 87.1797 308.479 73.9932 317.497 75.3565C326.514 76.7199 331.667 92.1169 329.004 109.747C326.342 127.376 316.874 140.563 307.856 139.2Z" fill="#030A24"/>
<path d="M310.647 136.04C302.878 134.866 298.502 121.189 300.872 105.493C303.242 89.7974 311.461 78.0254 319.23 79.1999C326.999 80.3744 331.375 94.0506 329.005 109.747C326.635 125.443 318.416 137.215 310.647 136.04Z" fill="#FCFFC1"/>
<path d="M313.87 131.177C308.057 130.298 304.888 119.361 306.792 106.748C308.697 94.1354 314.954 84.6231 320.767 85.5021C326.581 86.381 329.75 97.3183 327.845 109.931C325.941 122.544 319.684 132.056 313.87 131.177Z" fill="#030A24"/>
<path d="M137.019 79.3393C133.465 97.1052 137.736 116.506 145.18 116.924C150.965 117.248 145.696 107.62 150.633 85.8332C154.638 68.1643 169.996 52.4873 160.552 50.5975C151.108 48.7076 140.572 61.5742 137.019 79.3393Z" fill="#F2E6FF"/>
<path d="M29.6352 221.314C29.7149 221.314 29.7929 221.291 29.8594 221.247C29.926 221.203 29.9782 221.14 30.0097 221.067C30.0411 220.994 30.0504 220.913 30.0363 220.834C30.0223 220.756 29.9856 220.683 29.9307 220.625C27.211 217.76 17.4556 210.363 15.1816 208.93C12.3423 207.141 10.6554 206.501 8.16289 207.455C8.11152 207.473 8.06429 207.502 8.024 207.538C7.9837 207.575 7.95116 207.619 7.92829 207.669C7.90541 207.718 7.89264 207.772 7.89078 207.826C7.88892 207.881 7.89798 207.935 7.91743 207.986C7.93687 208.037 7.9663 208.083 8.004 208.123C8.04169 208.162 8.08689 208.194 8.1369 208.215C8.18692 208.237 8.24077 208.248 8.29524 208.249C8.34971 208.249 8.4037 208.238 8.45406 208.218C10.6339 207.383 12.0945 207.948 14.7466 209.62C17.2212 211.18 26.8539 218.569 29.3396 221.186C29.3775 221.227 29.4233 221.259 29.4741 221.281C29.5249 221.303 29.5797 221.314 29.6352 221.314Z" fill="#0B1A42"/>
<path d="M37.5889 218.362C37.6705 218.362 37.7502 218.338 37.8177 218.292C37.8853 218.246 37.9375 218.181 37.9678 218.105C37.998 218.029 38.0048 217.946 37.9873 217.866C37.9699 217.787 37.9289 217.714 37.8697 217.658C36.226 216.098 28.913 209.978 26.7614 208.562C26.5199 208.403 26.2737 208.24 26.023 208.071C24.0306 206.74 21.7728 205.231 19.0984 204.661C18.9927 204.638 18.8824 204.659 18.7917 204.718C18.701 204.776 18.6374 204.869 18.6148 204.975C18.5923 205.08 18.6127 205.191 18.6715 205.282C18.7303 205.372 18.8227 205.436 18.9284 205.459C21.4499 205.997 23.6389 207.459 25.5701 208.75C25.8224 208.919 26.0702 209.084 26.3137 209.244C28.4392 210.642 35.6787 216.703 37.3084 218.25C37.384 218.322 37.4845 218.362 37.5889 218.362Z" fill="#0B1A42"/>
<path d="M291.643 272.433C291.73 272.433 291.815 272.405 291.885 272.353C291.955 272.302 292.007 272.229 292.033 272.146C292.059 272.062 292.057 271.973 292.029 271.891C292 271.808 291.946 271.737 291.874 271.688C281.442 264.552 269.114 263.378 258.903 268.548C258.855 268.572 258.812 268.606 258.777 268.646C258.742 268.687 258.716 268.734 258.699 268.785C258.682 268.836 258.676 268.89 258.68 268.943C258.684 268.996 258.699 269.048 258.723 269.096C258.747 269.144 258.78 269.187 258.821 269.222C258.861 269.257 258.908 269.283 258.959 269.3C259.01 269.317 259.064 269.323 259.117 269.319C259.171 269.315 259.223 269.301 259.27 269.276C269.215 264.241 281.231 265.394 291.414 272.36C291.481 272.407 291.561 272.432 291.643 272.433Z" fill="#F2E6FF"/>
<path d="M265.661 263.933C265.725 263.934 265.788 263.919 265.845 263.89C273.027 260.253 281.434 259.885 289.516 262.856C289.566 262.876 289.62 262.884 289.674 262.883C289.728 262.881 289.781 262.868 289.83 262.846C289.879 262.824 289.923 262.792 289.96 262.752C289.996 262.713 290.025 262.666 290.043 262.615C290.062 262.565 290.07 262.511 290.068 262.457C290.066 262.403 290.053 262.35 290.03 262.301C290.007 262.253 289.974 262.209 289.935 262.172C289.895 262.136 289.848 262.108 289.797 262.09C281.501 259.041 272.863 259.421 265.476 263.163C265.394 263.205 265.329 263.272 265.29 263.356C265.252 263.439 265.242 263.533 265.264 263.622C265.285 263.711 265.336 263.791 265.408 263.848C265.48 263.904 265.569 263.935 265.661 263.935V263.933Z" fill="#F2E6FF"/>
</g>
<defs>
<linearGradient id="paint0_linear_370_1386" x1="270.878" y1="43.3374" x2="160.807" y2="169.116" gradientUnits="userSpaceOnUse">
<stop offset="0.289" stop-color="#07001B"/>
<stop offset="1" stop-color="#2B027E"/>
</linearGradient>
<clipPath id="clip0_370_1386">
<rect width="383" height="405" fill="white" transform="matrix(-1 0 0 1 383.5 0)"/>
</clipPath>
</defs>
</svg>
