<svg height="68.14" viewBox="0 0 68.14 68.14" width="68.14" xmlns="http://www.w3.org/2000/svg" xmlns:xlink="http://www.w3.org/1999/xlink"><radialGradient id="a" cx="81.281" cy="-6.296" gradientUnits="userSpaceOnUse" r="79.362"><stop offset=".741" stop-color="#c8ff00"/><stop offset="1" stop-color="#65c400"/></radialGradient><radialGradient id="b" cx="72.437" cy="-4.27" gradientUnits="userSpaceOnUse" r="56.845"><stop offset=".064" stop-color="#c8ff00"/><stop offset="1" stop-color="#65c400"/></radialGradient><radialGradient id="c" cx="65.198" cy="-4.45" r="77.014" xlink:href="#b"/><circle cx="34.07" cy="34.07" fill="url(#a)" r="34.07"/><path d="m40.625 13.711a31.717 31.717 0 0 1 2.548-12.466 33.766 33.766 0 0 0 -4.8-.964 34.059 34.059 0 0 0 26.056 49.245 34.1 34.1 0 0 0 1.9-4.54 31.89 31.89 0 0 1 -25.704-31.275z" fill="url(#b)"/><path d="m20.681 17.4a45.383 45.383 0 0 1 2.79-15.71 34.069 34.069 0 1 0 31.187 59.522 45.064 45.064 0 0 1 -33.977-43.812z" fill="url(#c)"/></svg>