<svg enable-background="new 0 0 101.332 101.332" height="102" viewBox="0 0 101.332 101.332" width="102" xmlns="http://www.w3.org/2000/svg" xmlns:xlink="http://www.w3.org/1999/xlink"><linearGradient id="a" gradientTransform="matrix(.9541 .2994 -.2994 .9541 -2821.1848 900.649)" gradientUnits="userSpaceOnUse" x1="2443.7402" x2="2521.0454" y1="-1634.6897" y2="-1701.3844"><stop offset="0" stop-color="#030a24"/><stop offset=".0084" stop-color="#040b27"/><stop offset=".1681" stop-color="#151663"/><stop offset=".3148" stop-color="#231e91"/><stop offset=".444" stop-color="#2d25b3"/><stop offset=".5508" stop-color="#3329c8"/><stop offset=".6218" stop-color="#352acf"/></linearGradient><circle cx="50.666" cy="50.666" fill="url(#a)" r="50.653"/><g fill="#6da2ef"><path d="m97.066 30.384c-1.026-2.344-2.224-4.608-3.59-6.771-.747 13.953-4.614 40.87-24.379 58.53-11.649 10.408-20.036 15.813-27.424 18.36 6.064 1.102 12.129 1.066 17.948.015 9.666-6.811 22.852-18.487 29.503-34.857 5.927-14.587 7.504-26.327 7.942-35.277z"/><path d="m71.417 57.178c10.1-12.933 14.888-26.116 16.702-40.606-3.049-3.356-6.563-6.33-10.496-8.798-4.257 12.742-13.167 33.966-30.75 45.867-15.193 10.282-32.857 13.261-43.907 14.055.403 1.125.852 2.231 1.332 3.324 46.967-6.014 51.456-21.236 58.371-21.324 8.598-.11-5.178 20.124-28.497 29.232-5.092 1.989-13.525 3.75-21.807 4.882 1.615 1.87 3.372 3.629 5.262 5.257 16.113-3.333 37.934-11.585 53.79-31.889z"/><path d="m53.661 28.632c-3.53 4.834-9.639 11.784-8.702 12.375 4.73 2.989 24.055-19.033 24.289-37.448-1.119-.44-2.252-.857-3.416-1.222-.798-.251-1.599-.478-2.4-.687-1.183 7.672-4.108 19.228-9.771 26.982z"/></g></svg>