<svg height="450.3" viewBox="0 0 450.3 450.3" width="450.3" xmlns="http://www.w3.org/2000/svg" xmlns:xlink="http://www.w3.org/1999/xlink"><linearGradient id="a" gradientUnits="userSpaceOnUse" x1="61.078" x2="706.412" y1="123.588" y2="470.255"><stop offset="0" stop-color="#fff"/><stop offset="1" stop-color="#6da2ef"/></linearGradient><linearGradient id="b" x1="4.282" x2="649.615" xlink:href="#a" y1="229.317" y2="575.984"/><circle cx="225.15" cy="225.15" fill="#ff4a8b" r="225.15"/><path d="m104.061 51.873c12.026 4.569 24.738 16.449 28.1 30.257 3.259 13.4-2.824 11.546-3.026 22.477-.18 9.742 4.169 15.53 7.607 15.516 6.174-.025 2.8-10.879 4.76-24.595 1.058-7.405 5.346-13.936 4.491-20.746-.8-6.376-7.9-11.81-16.6-21.881-5.237-6.064-13.21-14.513-23.037-19.028a225.928 225.928 0 0 0 -21.329 15.048 47.065 47.065 0 0 1 19.034 2.952z" fill="#fff"/><path d="m449.779 209.963c-33.318-32.494-91.565-40.632-124.673-20.068-15.422 9.58-24.593 17.5-34.76 14.349-28.117-8.713-13.86-36.038-28.513-42.375-20.774-8.983-45.4 5.777-54.255 11.881-10.171 7.015-11.881 18.613-26.679 15.668-16.434-3.271-4.057-30.285-16.883-38.637-10.49-6.83-21.781 4.356-29.8-1.287-5.984-4.211-13.206-12.3-14.436-14.99-4.868-10.652 1.864-19.761-3.284-33.621-3.153-8.483-20.656-26.027-55.941-29.337a225.628 225.628 0 0 0 -37.467 54.209 140.141 140.141 0 0 0 18.747 10.735c29.621 14.027 43.329 7.618 56.87 21.744 18.01 18.788 3.242 40.017 20.907 57.706 19.542 19.567 53.132 9.126 56.034 20.908 1.58 6.417-2.522 18.086-16.727 20.071-24.621 3.44-51.835-20.83-84.683-31.769-15.283-5.089-41.4-3.62-43.282 0-.9 1.722 6.135 1.786 16.708 4.094 11.391 2.486 26.889 7.576 41.007 20.148 50.2 44.7 66.163 58.608 96.732 55.045 27.413-3.2 47.606-26.411 89.5-30.494 17.54-1.71 24.906-14.913 41.978-10.692 23.03 5.693 25.507 39.541 69.517 69.773 8.365 5.746 17.54 12.042 27.464 14.95a224.076 224.076 0 0 0 36.44-122.824c0-5.105-.187-10.166-.521-15.187z" fill="url(#a)"/><path d="m415.541 345.364a157.81 157.81 0 0 0 -48.63-3.187c-17.734 1.813-28.043 6.941-53.336 6.247-24.962-.686-25.408-5.728-41.324-4.325-38.209 3.368-50.9 34.693-90.057 37.393-26.9 1.855-75.071-.54-103.108-35.951-11.786-14.884-17.06-40.741-38.893-52.817-11.731-6.488-24.07-6.5-31.111-4.117q.949 3.235 1.992 6.428c6.3-.592 15.583-.766 23.9 5.481 10.976 8.24 18.436 59.7 47.3 75.575 14.514 7.981 28.576 6.482 51.308 13.5 18.082 5.585 21.059 10.717 33.215 15.393 31.594 12.152 52.257-8.882 69.13 4.86a24.94 24.94 0 0 1 8.93 24.589 40.1 40.1 0 0 1 -7.071 15.5 225.356 225.356 0 0 0 32.117-4.1c1.219-5.6 4.149-12.257 13.281-19.255 12.87-9.861 59.651-32.391 70.057-16.275a226.341 226.341 0 0 0 62.3-64.939z" fill="url(#b)"/></svg>